<mxfile host="app.diagrams.net" agent="Mozilla/5.0 (Windows NT 10.0; Win64; x64) AppleWebKit/537.36 (KHTML, like Gecko) Chrome/129.0.0.0 Safari/537.36" version="24.7.17">
  <diagram name="第 1 页" id="aK39tbPqSxZ68MZFXjPL">
    <mxGraphModel dx="1267" dy="618" grid="1" gridSize="10" guides="1" tooltips="1" connect="1" arrows="1" fold="1" page="1" pageScale="1" pageWidth="827" pageHeight="1169" math="0" shadow="0">
      <root>
        <mxCell id="0" />
        <mxCell id="1" parent="0" />
        <mxCell id="jsGEG9bvDsD9umdaEJkl-1" value="" style="rounded=0;whiteSpace=wrap;html=1;" vertex="1" parent="1">
          <mxGeometry x="40" y="70" width="51.42857142857142" height="24" as="geometry" />
        </mxCell>
        <mxCell id="jsGEG9bvDsD9umdaEJkl-2" value="" style="rounded=0;whiteSpace=wrap;html=1;" vertex="1" parent="1">
          <mxGeometry x="44.285714285714285" y="74" width="51.42857142857142" height="24" as="geometry" />
        </mxCell>
        <mxCell id="jsGEG9bvDsD9umdaEJkl-3" value="" style="rounded=0;whiteSpace=wrap;html=1;" vertex="1" parent="1">
          <mxGeometry x="48.57142857142857" y="78" width="51.42857142857142" height="24" as="geometry" />
        </mxCell>
        <mxCell id="jsGEG9bvDsD9umdaEJkl-8" style="edgeStyle=orthogonalEdgeStyle;rounded=0;orthogonalLoop=1;jettySize=auto;html=1;entryX=0;entryY=0.5;entryDx=0;entryDy=0;" edge="1" parent="1" source="jsGEG9bvDsD9umdaEJkl-4" target="jsGEG9bvDsD9umdaEJkl-7">
          <mxGeometry relative="1" as="geometry">
            <mxPoint x="121.42857142857142" y="94" as="targetPoint" />
            <Array as="points">
              <mxPoint x="160" y="94" />
              <mxPoint x="160" y="94" />
            </Array>
          </mxGeometry>
        </mxCell>
        <mxCell id="jsGEG9bvDsD9umdaEJkl-4" value="" style="rounded=0;whiteSpace=wrap;html=1;" vertex="1" parent="1">
          <mxGeometry x="52.857142857142854" y="82" width="51.42857142857142" height="24" as="geometry" />
        </mxCell>
        <mxCell id="jsGEG9bvDsD9umdaEJkl-7" value="" style="shape=sumEllipse;perimeter=ellipsePerimeter;whiteSpace=wrap;html=1;backgroundOutline=1;" vertex="1" parent="1">
          <mxGeometry x="339.99571428571426" y="78" width="34.285714285714285" height="32" as="geometry" />
        </mxCell>
        <mxCell id="jsGEG9bvDsD9umdaEJkl-9" value="输入视频" style="text;html=1;align=center;verticalAlign=middle;whiteSpace=wrap;rounded=0;" vertex="1" parent="1">
          <mxGeometry x="52.857142857142854" y="82" width="51.42857142857142" height="24" as="geometry" />
        </mxCell>
        <mxCell id="jsGEG9bvDsD9umdaEJkl-10" value="" style="verticalLabelPosition=bottom;verticalAlign=top;html=1;shape=mxgraph.basic.patternFillRect;fillStyle=diag;step=5;fillStrokeWidth=0.2;fillStrokeColor=#dddddd;" vertex="1" parent="1">
          <mxGeometry x="458.57142857142856" y="82" width="51.42857142857142" height="24" as="geometry" />
        </mxCell>
        <mxCell id="jsGEG9bvDsD9umdaEJkl-13" value="&lt;font style=&quot;font-size: 24px;&quot;&gt;+&lt;/font&gt;" style="text;html=1;align=center;verticalAlign=middle;whiteSpace=wrap;rounded=0;" vertex="1" parent="1">
          <mxGeometry x="314.27714285714285" y="78" width="25.71428571428571" height="12" as="geometry" />
        </mxCell>
        <mxCell id="jsGEG9bvDsD9umdaEJkl-23" value="运动估计" style="rounded=0;whiteSpace=wrap;html=1;" vertex="1" parent="1">
          <mxGeometry x="169.9957142857143" y="120" width="51.42857142857142" height="24" as="geometry" />
        </mxCell>
        <mxCell id="jsGEG9bvDsD9umdaEJkl-55" style="edgeStyle=orthogonalEdgeStyle;rounded=0;orthogonalLoop=1;jettySize=auto;html=1;entryX=0;entryY=0.25;entryDx=0;entryDy=0;" edge="1" parent="1" source="jsGEG9bvDsD9umdaEJkl-24" target="jsGEG9bvDsD9umdaEJkl-28">
          <mxGeometry relative="1" as="geometry" />
        </mxCell>
        <mxCell id="jsGEG9bvDsD9umdaEJkl-24" value="运动补偿" style="rounded=0;whiteSpace=wrap;html=1;" vertex="1" parent="1">
          <mxGeometry x="209.99571428571429" y="170" width="51.42857142857142" height="24" as="geometry" />
        </mxCell>
        <mxCell id="jsGEG9bvDsD9umdaEJkl-56" style="edgeStyle=orthogonalEdgeStyle;rounded=0;orthogonalLoop=1;jettySize=auto;html=1;entryX=0;entryY=0.75;entryDx=0;entryDy=0;" edge="1" parent="1" source="jsGEG9bvDsD9umdaEJkl-26" target="jsGEG9bvDsD9umdaEJkl-28">
          <mxGeometry relative="1" as="geometry" />
        </mxCell>
        <mxCell id="jsGEG9bvDsD9umdaEJkl-26" value="帧内预测" style="rounded=0;whiteSpace=wrap;html=1;" vertex="1" parent="1">
          <mxGeometry x="209.9957142857143" y="210" width="51.42857142857142" height="24" as="geometry" />
        </mxCell>
        <mxCell id="jsGEG9bvDsD9umdaEJkl-27" value="帧内估计" style="rounded=0;whiteSpace=wrap;html=1;" vertex="1" parent="1">
          <mxGeometry x="169.9957142857143" y="250" width="51.42857142857142" height="24" as="geometry" />
        </mxCell>
        <mxCell id="jsGEG9bvDsD9umdaEJkl-57" style="edgeStyle=orthogonalEdgeStyle;rounded=0;orthogonalLoop=1;jettySize=auto;html=1;entryX=0.5;entryY=1;entryDx=0;entryDy=0;exitX=0.5;exitY=0;exitDx=0;exitDy=0;" edge="1" parent="1" source="jsGEG9bvDsD9umdaEJkl-28" target="jsGEG9bvDsD9umdaEJkl-7">
          <mxGeometry relative="1" as="geometry" />
        </mxCell>
        <mxCell id="jsGEG9bvDsD9umdaEJkl-76" style="edgeStyle=orthogonalEdgeStyle;rounded=0;orthogonalLoop=1;jettySize=auto;html=1;" edge="1" parent="1" source="jsGEG9bvDsD9umdaEJkl-28">
          <mxGeometry relative="1" as="geometry">
            <mxPoint x="640" y="200" as="targetPoint" />
          </mxGeometry>
        </mxCell>
        <mxCell id="jsGEG9bvDsD9umdaEJkl-28" value="帧间/帧内决策" style="rounded=0;whiteSpace=wrap;html=1;" vertex="1" parent="1">
          <mxGeometry x="330" y="180" width="60" height="40" as="geometry" />
        </mxCell>
        <mxCell id="jsGEG9bvDsD9umdaEJkl-29" value="" style="shape=sumEllipse;perimeter=ellipsePerimeter;whiteSpace=wrap;html=1;backgroundOutline=1;" vertex="1" parent="1">
          <mxGeometry x="342.85571428571427" y="330" width="34.285714285714285" height="32" as="geometry" />
        </mxCell>
        <mxCell id="jsGEG9bvDsD9umdaEJkl-45" style="edgeStyle=orthogonalEdgeStyle;rounded=0;orthogonalLoop=1;jettySize=auto;html=1;exitX=0;exitY=0.5;exitDx=0;exitDy=0;entryX=1;entryY=0.5;entryDx=0;entryDy=0;" edge="1" parent="1" source="jsGEG9bvDsD9umdaEJkl-30" target="jsGEG9bvDsD9umdaEJkl-31">
          <mxGeometry relative="1" as="geometry" />
        </mxCell>
        <mxCell id="jsGEG9bvDsD9umdaEJkl-30" value="去块滤波" style="rounded=0;whiteSpace=wrap;html=1;" vertex="1" parent="1">
          <mxGeometry x="169.9957142857143" y="334" width="51.42857142857142" height="24" as="geometry" />
        </mxCell>
        <mxCell id="jsGEG9bvDsD9umdaEJkl-41" style="edgeStyle=orthogonalEdgeStyle;rounded=0;orthogonalLoop=1;jettySize=auto;html=1;" edge="1" parent="1" source="jsGEG9bvDsD9umdaEJkl-31">
          <mxGeometry relative="1" as="geometry">
            <mxPoint x="80" y="346" as="targetPoint" />
          </mxGeometry>
        </mxCell>
        <mxCell id="jsGEG9bvDsD9umdaEJkl-31" value="SAO" style="rounded=0;whiteSpace=wrap;html=1;" vertex="1" parent="1">
          <mxGeometry x="110" y="334" width="32.85" height="24" as="geometry" />
        </mxCell>
        <mxCell id="jsGEG9bvDsD9umdaEJkl-52" style="edgeStyle=orthogonalEdgeStyle;rounded=0;orthogonalLoop=1;jettySize=auto;html=1;entryX=0.5;entryY=1;entryDx=0;entryDy=0;" edge="1" parent="1" source="jsGEG9bvDsD9umdaEJkl-32" target="jsGEG9bvDsD9umdaEJkl-31">
          <mxGeometry relative="1" as="geometry" />
        </mxCell>
        <mxCell id="jsGEG9bvDsD9umdaEJkl-32" value="SAO参数估计" style="rounded=0;whiteSpace=wrap;html=1;" vertex="1" parent="1">
          <mxGeometry x="230" y="390" width="120" height="50" as="geometry" />
        </mxCell>
        <mxCell id="jsGEG9bvDsD9umdaEJkl-78" style="edgeStyle=orthogonalEdgeStyle;rounded=0;orthogonalLoop=1;jettySize=auto;html=1;entryX=1;entryY=0.5;entryDx=0;entryDy=0;" edge="1" parent="1" source="jsGEG9bvDsD9umdaEJkl-34" target="jsGEG9bvDsD9umdaEJkl-29">
          <mxGeometry relative="1" as="geometry" />
        </mxCell>
        <mxCell id="jsGEG9bvDsD9umdaEJkl-34" value="" style="verticalLabelPosition=bottom;verticalAlign=top;html=1;shape=mxgraph.basic.patternFillRect;fillStyle=diag;step=5;fillStrokeWidth=0.2;fillStrokeColor=#dddddd;" vertex="1" parent="1">
          <mxGeometry x="458.57142857142856" y="334" width="51.42857142857142" height="24" as="geometry" />
        </mxCell>
        <mxCell id="jsGEG9bvDsD9umdaEJkl-35" value="" style="verticalLabelPosition=bottom;verticalAlign=top;html=1;shape=mxgraph.basic.patternFillRect;fillStyle=diag;step=5;fillStrokeWidth=0.2;fillStrokeColor=#dddddd;" vertex="1" parent="1">
          <mxGeometry x="570" y="65" width="100" height="58" as="geometry" />
        </mxCell>
        <mxCell id="jsGEG9bvDsD9umdaEJkl-38" value="" style="group" vertex="1" connectable="0" parent="1">
          <mxGeometry x="-0.004285714285686026" y="330" width="71.42857142857142" height="44" as="geometry" />
        </mxCell>
        <mxCell id="jsGEG9bvDsD9umdaEJkl-33" value="" style="rounded=0;whiteSpace=wrap;html=1;" vertex="1" parent="jsGEG9bvDsD9umdaEJkl-38">
          <mxGeometry width="51.42857142857142" height="24" as="geometry" />
        </mxCell>
        <mxCell id="jsGEG9bvDsD9umdaEJkl-36" value="" style="rounded=0;whiteSpace=wrap;html=1;" vertex="1" parent="jsGEG9bvDsD9umdaEJkl-38">
          <mxGeometry x="10" y="10" width="51.42857142857142" height="24" as="geometry" />
        </mxCell>
        <mxCell id="jsGEG9bvDsD9umdaEJkl-37" value="参考帧" style="rounded=0;whiteSpace=wrap;html=1;" vertex="1" parent="jsGEG9bvDsD9umdaEJkl-38">
          <mxGeometry x="20" y="20" width="51.42857142857142" height="24" as="geometry" />
        </mxCell>
        <mxCell id="jsGEG9bvDsD9umdaEJkl-39" value="DPB" style="text;html=1;align=center;verticalAlign=middle;whiteSpace=wrap;rounded=0;" vertex="1" parent="1">
          <mxGeometry x="6" y="374" width="60" height="30" as="geometry" />
        </mxCell>
        <mxCell id="jsGEG9bvDsD9umdaEJkl-47" value="" style="shape=waypoint;sketch=0;fillStyle=solid;size=6;pointerEvents=1;points=[];fillColor=none;resizable=0;rotatable=0;perimeter=centerPerimeter;snapToPoint=1;" vertex="1" parent="1">
          <mxGeometry x="230" y="336" width="20" height="20" as="geometry" />
        </mxCell>
        <mxCell id="jsGEG9bvDsD9umdaEJkl-48" style="edgeStyle=orthogonalEdgeStyle;rounded=0;orthogonalLoop=1;jettySize=auto;html=1;entryX=0.603;entryY=0.967;entryDx=0;entryDy=0;entryPerimeter=0;" edge="1" parent="1" source="jsGEG9bvDsD9umdaEJkl-47" target="jsGEG9bvDsD9umdaEJkl-26">
          <mxGeometry relative="1" as="geometry" />
        </mxCell>
        <mxCell id="jsGEG9bvDsD9umdaEJkl-50" value="" style="endArrow=none;html=1;rounded=0;entryX=0;entryY=0.5;entryDx=0;entryDy=0;" edge="1" parent="1" source="jsGEG9bvDsD9umdaEJkl-47" target="jsGEG9bvDsD9umdaEJkl-29">
          <mxGeometry width="50" height="50" relative="1" as="geometry">
            <mxPoint x="240" y="340" as="sourcePoint" />
            <mxPoint x="290" y="290" as="targetPoint" />
          </mxGeometry>
        </mxCell>
        <mxCell id="jsGEG9bvDsD9umdaEJkl-51" value="" style="endArrow=classic;html=1;rounded=0;entryX=1;entryY=0.5;entryDx=0;entryDy=0;" edge="1" parent="1" target="jsGEG9bvDsD9umdaEJkl-30">
          <mxGeometry width="50" height="50" relative="1" as="geometry">
            <mxPoint x="240" y="346" as="sourcePoint" />
            <mxPoint x="290" y="300" as="targetPoint" />
          </mxGeometry>
        </mxCell>
        <mxCell id="jsGEG9bvDsD9umdaEJkl-53" value="滤波控制" style="text;html=1;align=center;verticalAlign=middle;whiteSpace=wrap;rounded=0;" vertex="1" parent="1">
          <mxGeometry x="161" y="420" width="60" height="30" as="geometry" />
        </mxCell>
        <mxCell id="jsGEG9bvDsD9umdaEJkl-54" value="重建" style="text;html=1;align=center;verticalAlign=middle;whiteSpace=wrap;rounded=0;" vertex="1" parent="1">
          <mxGeometry x="280" y="320" width="60" height="30" as="geometry" />
        </mxCell>
        <mxCell id="jsGEG9bvDsD9umdaEJkl-58" value="&lt;font style=&quot;font-size: 36px;&quot;&gt;-&lt;/font&gt;" style="text;html=1;align=center;verticalAlign=middle;whiteSpace=wrap;rounded=0;" vertex="1" parent="1">
          <mxGeometry x="339.99" y="98" width="60" height="30" as="geometry" />
        </mxCell>
        <mxCell id="jsGEG9bvDsD9umdaEJkl-59" style="edgeStyle=orthogonalEdgeStyle;rounded=0;orthogonalLoop=1;jettySize=auto;html=1;entryX=0;entryY=0.5;entryDx=0;entryDy=0;exitX=0.5;exitY=0;exitDx=0;exitDy=0;" edge="1" parent="1" source="jsGEG9bvDsD9umdaEJkl-33" target="jsGEG9bvDsD9umdaEJkl-24">
          <mxGeometry relative="1" as="geometry" />
        </mxCell>
        <mxCell id="jsGEG9bvDsD9umdaEJkl-60" value="参考样本" style="text;html=1;align=center;verticalAlign=middle;whiteSpace=wrap;rounded=0;" vertex="1" parent="1">
          <mxGeometry x="91" y="185" width="60" height="30" as="geometry" />
        </mxCell>
        <mxCell id="jsGEG9bvDsD9umdaEJkl-63" value="" style="shape=waypoint;sketch=0;fillStyle=solid;size=6;pointerEvents=1;points=[];fillColor=none;resizable=0;rotatable=0;perimeter=centerPerimeter;snapToPoint=1;" vertex="1" parent="1">
          <mxGeometry x="400" y="290" width="20" height="20" as="geometry" />
        </mxCell>
        <mxCell id="jsGEG9bvDsD9umdaEJkl-67" value="" style="edgeStyle=segmentEdgeStyle;endArrow=classic;html=1;curved=0;rounded=0;endSize=8;startSize=8;entryX=0;entryY=0.25;entryDx=0;entryDy=0;" edge="1" parent="1">
          <mxGeometry width="50" height="50" relative="1" as="geometry">
            <mxPoint x="143" y="100" as="sourcePoint" />
            <mxPoint x="172.80571428571426" y="264" as="targetPoint" />
            <Array as="points">
              <mxPoint x="143" y="100" />
              <mxPoint x="143" y="264" />
            </Array>
          </mxGeometry>
        </mxCell>
        <mxCell id="jsGEG9bvDsD9umdaEJkl-69" value="" style="edgeStyle=segmentEdgeStyle;endArrow=classic;html=1;curved=0;rounded=0;endSize=8;startSize=8;entryX=0;entryY=0.25;entryDx=0;entryDy=0;" edge="1" parent="1">
          <mxGeometry width="50" height="50" relative="1" as="geometry">
            <mxPoint x="143" y="100" as="sourcePoint" />
            <mxPoint x="172.80571428571426" y="264" as="targetPoint" />
            <Array as="points">
              <mxPoint x="143" y="100" />
              <mxPoint x="143" y="264" />
            </Array>
          </mxGeometry>
        </mxCell>
        <mxCell id="jsGEG9bvDsD9umdaEJkl-70" value="" style="endArrow=classic;html=1;rounded=0;entryX=0;entryY=0.5;entryDx=0;entryDy=0;" edge="1" parent="1" target="jsGEG9bvDsD9umdaEJkl-23">
          <mxGeometry width="50" height="50" relative="1" as="geometry">
            <mxPoint x="140" y="132" as="sourcePoint" />
            <mxPoint x="190" y="90" as="targetPoint" />
          </mxGeometry>
        </mxCell>
        <mxCell id="jsGEG9bvDsD9umdaEJkl-71" style="edgeStyle=orthogonalEdgeStyle;rounded=0;orthogonalLoop=1;jettySize=auto;html=1;entryX=0;entryY=0.5;entryDx=0;entryDy=0;entryPerimeter=0;" edge="1" parent="1" source="jsGEG9bvDsD9umdaEJkl-7" target="jsGEG9bvDsD9umdaEJkl-10">
          <mxGeometry relative="1" as="geometry" />
        </mxCell>
        <mxCell id="jsGEG9bvDsD9umdaEJkl-72" value="残差" style="text;html=1;align=center;verticalAlign=middle;whiteSpace=wrap;rounded=0;" vertex="1" parent="1">
          <mxGeometry x="380" y="72" width="60" height="30" as="geometry" />
        </mxCell>
        <mxCell id="jsGEG9bvDsD9umdaEJkl-75" style="edgeStyle=orthogonalEdgeStyle;rounded=0;orthogonalLoop=1;jettySize=auto;html=1;entryX=0;entryY=0.5;entryDx=0;entryDy=0;" edge="1" parent="1" source="jsGEG9bvDsD9umdaEJkl-73" target="jsGEG9bvDsD9umdaEJkl-74">
          <mxGeometry relative="1" as="geometry">
            <Array as="points">
              <mxPoint x="540" y="93" />
              <mxPoint x="540" y="93" />
            </Array>
          </mxGeometry>
        </mxCell>
        <mxCell id="jsGEG9bvDsD9umdaEJkl-73" value="T &amp;amp; Q" style="text;html=1;align=center;verticalAlign=middle;whiteSpace=wrap;rounded=0;" vertex="1" parent="1">
          <mxGeometry x="450" y="78" width="60" height="30" as="geometry" />
        </mxCell>
        <mxCell id="jsGEG9bvDsD9umdaEJkl-84" style="edgeStyle=orthogonalEdgeStyle;rounded=0;orthogonalLoop=1;jettySize=auto;html=1;" edge="1" parent="1" source="jsGEG9bvDsD9umdaEJkl-74">
          <mxGeometry relative="1" as="geometry">
            <mxPoint x="770" y="93" as="targetPoint" />
          </mxGeometry>
        </mxCell>
        <mxCell id="jsGEG9bvDsD9umdaEJkl-74" value="CABAC" style="text;html=1;align=center;verticalAlign=middle;whiteSpace=wrap;rounded=0;" vertex="1" parent="1">
          <mxGeometry x="570" y="68" width="100" height="50" as="geometry" />
        </mxCell>
        <mxCell id="jsGEG9bvDsD9umdaEJkl-77" style="edgeStyle=orthogonalEdgeStyle;rounded=0;orthogonalLoop=1;jettySize=auto;html=1;entryX=0.75;entryY=1;entryDx=0;entryDy=0;entryPerimeter=0;" edge="1" parent="1" source="jsGEG9bvDsD9umdaEJkl-32" target="jsGEG9bvDsD9umdaEJkl-35">
          <mxGeometry relative="1" as="geometry" />
        </mxCell>
        <mxCell id="jsGEG9bvDsD9umdaEJkl-79" value="T-1&amp;amp;Q-1" style="text;html=1;align=center;verticalAlign=middle;whiteSpace=wrap;rounded=0;" vertex="1" parent="1">
          <mxGeometry x="450" y="331" width="60" height="30" as="geometry" />
        </mxCell>
        <mxCell id="jsGEG9bvDsD9umdaEJkl-80" style="edgeStyle=orthogonalEdgeStyle;rounded=0;orthogonalLoop=1;jettySize=auto;html=1;" edge="1" parent="1" source="jsGEG9bvDsD9umdaEJkl-28">
          <mxGeometry relative="1" as="geometry">
            <mxPoint x="361" y="330" as="targetPoint" />
          </mxGeometry>
        </mxCell>
        <mxCell id="jsGEG9bvDsD9umdaEJkl-81" value="&lt;font style=&quot;font-size: 36px;&quot;&gt;+&lt;/font&gt;" style="text;html=1;align=center;verticalAlign=middle;whiteSpace=wrap;rounded=0;" vertex="1" parent="1">
          <mxGeometry x="350" y="306" width="60" height="30" as="geometry" />
        </mxCell>
        <mxCell id="jsGEG9bvDsD9umdaEJkl-82" value="&lt;font style=&quot;font-size: 36px;&quot;&gt;+&lt;/font&gt;" style="text;html=1;align=center;verticalAlign=middle;whiteSpace=wrap;rounded=0;" vertex="1" parent="1">
          <mxGeometry x="350" y="356" width="60" height="30" as="geometry" />
        </mxCell>
        <mxCell id="jsGEG9bvDsD9umdaEJkl-83" value="SAO参数" style="text;html=1;align=center;verticalAlign=middle;whiteSpace=wrap;rounded=0;" vertex="1" parent="1">
          <mxGeometry x="600" y="420" width="60" height="30" as="geometry" />
        </mxCell>
        <mxCell id="jsGEG9bvDsD9umdaEJkl-85" value="比特流" style="text;html=1;align=center;verticalAlign=middle;whiteSpace=wrap;rounded=0;" vertex="1" parent="1">
          <mxGeometry x="680" y="60" width="60" height="30" as="geometry" />
        </mxCell>
        <mxCell id="jsGEG9bvDsD9umdaEJkl-91" value="" style="endArrow=none;html=1;rounded=0;" edge="1" parent="1">
          <mxGeometry width="50" height="50" relative="1" as="geometry">
            <mxPoint x="540" y="350" as="sourcePoint" />
            <mxPoint x="540" y="94" as="targetPoint" />
          </mxGeometry>
        </mxCell>
        <mxCell id="jsGEG9bvDsD9umdaEJkl-93" value="量化残差" style="edgeLabel;html=1;align=center;verticalAlign=middle;resizable=0;points=[];" vertex="1" connectable="0" parent="jsGEG9bvDsD9umdaEJkl-91">
          <mxGeometry x="-0.3" y="1" relative="1" as="geometry">
            <mxPoint as="offset" />
          </mxGeometry>
        </mxCell>
        <mxCell id="jsGEG9bvDsD9umdaEJkl-92" value="" style="endArrow=classic;html=1;rounded=0;entryX=1;entryY=0.5;entryDx=0;entryDy=0;" edge="1" parent="1" target="jsGEG9bvDsD9umdaEJkl-79">
          <mxGeometry width="50" height="50" relative="1" as="geometry">
            <mxPoint x="540" y="346" as="sourcePoint" />
            <mxPoint x="590" y="300" as="targetPoint" />
          </mxGeometry>
        </mxCell>
      </root>
    </mxGraphModel>
  </diagram>
</mxfile>
